<svg width="16" height="16" viewBox="0 0 16 16" fill="none" xmlns="http://www.w3.org/2000/svg">
<path d="M16 8C16 12.4183 12.4183 16 8 16C3.58172 16 0 12.4183 0 8C0 3.58172 3.58172 0 8 0C12.4183 0 16 3.58172 16 8Z" fill="white"/>
<path d="M1.89893 5.9165H5.80566L5.92529 7.4751H5.75098C5.64388 6.95329 5.50146 6.59212 5.32373 6.3916C5.14827 6.19108 4.91699 6.09082 4.62988 6.09082H4.25732V10.3257H5.07764V10.5H2.62695V10.3257H3.44727V6.09082H3.07471C2.7876 6.09082 2.55518 6.19108 2.37744 6.3916C2.20199 6.59212 2.06071 6.95329 1.95361 7.4751H1.7793L1.89893 5.9165Z" fill="black"/>
<path d="M8.59131 9.07129H7.13525L6.66699 10.3257H7.51465V10.5H5.85352V10.3257H6.48584L8.15723 5.81055H8.26318L9.86621 10.3257H10.4814V10.5H8.29736V10.3257H9.03906L8.59131 9.07129ZM7.2002 8.89697H8.52979L7.88379 7.06152H7.87012L7.2002 8.89697Z" fill="black"/>
<path d="M13.7661 5.86523L13.7866 7.05469H13.626C13.3981 6.34147 12.9959 5.98486 12.4194 5.98486C12.1004 5.98486 11.8521 6.07373 11.6743 6.25146C11.4989 6.42692 11.4111 6.60921 11.4111 6.79834C11.4111 6.9738 11.484 7.12305 11.6299 7.24609C11.778 7.36914 12.0469 7.46484 12.4365 7.5332C12.8262 7.59928 13.1224 7.68132 13.3252 7.7793C13.5303 7.875 13.7023 8.03564 13.8413 8.26123C13.9826 8.48682 14.0532 8.74544 14.0532 9.03711C14.0532 9.486 13.9062 9.8597 13.6123 10.1582C13.3206 10.4567 12.9583 10.606 12.5254 10.606C12.1722 10.606 11.8201 10.4749 11.4692 10.2129L11.1479 10.5H11.0283V9.21826H11.1753C11.3097 9.62158 11.4977 9.92464 11.7393 10.1274C11.9808 10.3302 12.2451 10.4316 12.5322 10.4316C12.8171 10.4316 13.078 10.3382 13.3149 10.1514C13.5542 9.96224 13.6738 9.72412 13.6738 9.43701C13.6738 9.19548 13.5907 8.99268 13.4243 8.82861C13.2603 8.66227 12.9925 8.54834 12.6211 8.48682C12.252 8.42301 11.9683 8.3501 11.77 8.26807C11.5718 8.18376 11.402 8.03906 11.2607 7.83398C11.1195 7.62663 11.0488 7.39762 11.0488 7.14697C11.0488 6.80062 11.1719 6.49186 11.418 6.2207C11.6641 5.94727 11.9979 5.81055 12.4194 5.81055C12.7726 5.81055 13.1019 5.9222 13.4072 6.14551C13.4915 6.06576 13.5645 5.97233 13.626 5.86523H13.7661Z" fill="black"/>
</svg>
